<?xml version="1.0" encoding="UTF-8" standalone="no"?>
<svg
   xmlns:dc="http://purl.org/dc/elements/1.1/"
   xmlns:cc="http://creativecommons.org/ns#"
   xmlns:rdf="http://www.w3.org/1999/02/22-rdf-syntax-ns#"
   xmlns:svg="http://www.w3.org/2000/svg"
   xmlns="http://www.w3.org/2000/svg"
   xmlns:sodipodi="http://sodipodi.sourceforge.net/DTD/sodipodi-0.dtd"
   xmlns:inkscape="http://www.inkscape.org/namespaces/inkscape"
   version="1.0"
   width="200px"
   height="200px"
   viewBox="0 0 2000 2000"
   preserveAspectRatio="xMidYMid meet"
   id="svg7"
   sodipodi:docname="123.svg"
   inkscape:version="0.92.4 (5da689c313, 2019-01-14)">
  <metadata
     id="metadata13">
    <rdf:RDF>
      <cc:Work
         rdf:about="">
        <dc:format>image/svg+xml</dc:format>
        <dc:type
           rdf:resource="http://purl.org/dc/dcmitype/StillImage" />
      </cc:Work>
    </rdf:RDF>
  </metadata>
  <defs
     id="defs11" />
  <sodipodi:namedview
     pagecolor="#ffffff"
     bordercolor="#666666"
     borderopacity="1"
     objecttolerance="10"
     gridtolerance="10"
     guidetolerance="10"
     inkscape:pageopacity="0"
     inkscape:pageshadow="2"
     inkscape:window-width="1920"
     inkscape:window-height="1017"
     id="namedview9"
     showgrid="false"
     inkscape:zoom="1.18"
     inkscape:cx="-37.711864"
     inkscape:cy="100"
     inkscape:window-x="-8"
     inkscape:window-y="-8"
     inkscape:window-maximized="1"
     inkscape:current-layer="svg7" />
  <g
     id="layer101"
     fill="#2182c4"
     stroke="none"
     style="fill:#333333;fill-opacity:0.98994976">
    <path
       d="M925 1879 c-310 -22 -582 -208 -720 -494 -67 -139 -80 -203 -80 -385 0 -120 4 -171 19 -225 88 -327 350 -572 683 -641 120 -25 321 -15 433 21 130 42 289 131 304 171 8 21 -29 81 -55 89 -14 5 -39 -6 -82 -34 -160 -103 -275 -136 -460 -129 -98 4 -138 10 -202 32 -114 39 -209 98 -296 185 -300 300 -300 764 1 1062 87 87 182 146 296 185 105 36 284 45 397 20 150 -34 313 -133 411 -252 109 -133 163 -272 175 -451 7 -106 9 -115 36 -143 16 -16 39 -30 51 -30 40 0 48 24 47 143 -3 343 -192 645 -496 792 -151 72 -283 96 -462 84z"
       id="path2"
       style="fill:#333333;fill-opacity:0.98994976" />
    <path
       d="M842 1137 c-205 -205 -216 -223 -172 -267 42 -42 63 -30 224 130 l151 150 370 -370 c250 -250 377 -370 391 -370 12 0 33 9 48 21 56 44 59 41 -386 486 -227 227 -417 413 -423 413 -6 0 -97 -87 -203 -193z"
       id="path4"
       style="fill:#333333;fill-opacity:0.98994976" />
  </g>
</svg>
