<?xml version="1.0" encoding="utf-8"?>
<!-- Svg Vector Icons : http://www.onlinewebfonts.com/icon -->
<!DOCTYPE svg PUBLIC "-//W3C//DTD SVG 1.1//EN" "http://www.w3.org/Graphics/SVG/1.1/DTD/svg11.dtd">
<svg version="1.1" xmlns="http://www.w3.org/2000/svg" xmlns:xlink="http://www.w3.org/1999/xlink" x="0px" y="0px" viewBox="0 0 1000 1000" enable-background="new 0 0 1000 1000" xml:space="preserve">
<metadata> Svg Vector Icons : http://www.onlinewebfonts.com/icon </metadata>
<g><path d="M571.1,500l404.1-391.3c19.6-19,19.6-49.8,0-68.8c-19.6-19-51.4-19-71,0L500,431.2L95.8,39.8c-19.6-19-51.4-19-71.1,0c-19.6,19-19.6,49.8,0,68.8L428.9,500L24.7,891.3c-19.6,19-19.6,49.8,0,68.8c19.6,19,51.4,19,71.1,0L500,568.8l404.2,391.4c19.6,19,51.4,19,71,0c19.6-19,19.6-49.9,0-68.8L571.1,500L571.1,500z"/></g>
</svg>